<svg width="25" height="26" viewBox="0 0 25 26" fill="none" xmlns="http://www.w3.org/2000/svg">
<path d="M12.5 14.5625C13.3629 14.5625 14.0625 13.8629 14.0625 13C14.0625 12.1371 13.3629 11.4375 12.5 11.4375C11.6371 11.4375 10.9375 12.1371 10.9375 13C10.9375 13.8629 11.6371 14.5625 12.5 14.5625Z" fill="#133159" fill-opacity="0.65"/>
<path d="M21.1654 10.2591H20.0299C19.8841 10.2591 19.7799 10.1445 19.7174 9.98828C19.6802 9.9309 19.6604 9.86397 19.6604 9.79557C19.6604 9.72718 19.6802 9.66025 19.7174 9.60286L20.5612 8.83203C20.7266 8.67297 20.858 8.48204 20.9475 8.27078C21.037 8.05952 21.0828 7.83231 21.082 7.60286C21.0818 7.37202 21.0356 7.14354 20.9462 6.93072C20.8568 6.7179 20.7259 6.52501 20.5612 6.36328L19.1654 4.9362C19.0037 4.77337 18.8114 4.64414 18.5995 4.55595C18.3877 4.46777 18.1605 4.42237 17.931 4.42237C17.7015 4.42237 17.4743 4.46777 17.2625 4.55595C17.0506 4.64414 16.8583 4.77337 16.6966 4.9362L15.8945 5.70703C15.8308 5.74787 15.7567 5.76957 15.681 5.76957C15.6053 5.76957 15.5312 5.74787 15.4674 5.70703C15.4045 5.68357 15.3496 5.64272 15.309 5.58924C15.2685 5.53576 15.2439 5.47184 15.2383 5.40495V4.33203C15.2385 3.87679 15.0613 3.43938 14.7443 3.11265C14.4273 2.78592 13.9954 2.59558 13.5404 2.58203H11.5195C11.0544 2.58202 10.6082 2.76606 10.2784 3.09396C9.94855 3.42185 9.76187 3.86695 9.75911 4.33203V5.46745C9.75911 5.61328 9.64453 5.71745 9.48828 5.77995C9.4309 5.81716 9.36397 5.83697 9.29557 5.83697C9.22718 5.83697 9.16025 5.81716 9.10286 5.77995L8.33203 4.9362C8.00212 4.60825 7.55759 4.42147 7.09245 4.41536C6.86318 4.41581 6.63633 4.46212 6.42523 4.55157C6.21414 4.64102 6.02307 4.77179 5.86328 4.9362L4.4362 6.33203C4.26861 6.49423 4.13535 6.68848 4.04434 6.90322C3.95333 7.11796 3.90643 7.3488 3.90643 7.58203C3.90643 7.81526 3.95333 8.04611 4.04434 8.26085C4.13535 8.47558 4.26861 8.66983 4.4362 8.83203L5.20703 9.60286C5.24787 9.6666 5.26957 9.74071 5.26957 9.81641C5.26957 9.8921 5.24787 9.96621 5.20703 10.0299C5.18357 10.0928 5.14272 10.1478 5.08924 10.1884C5.03576 10.2289 4.97184 10.2535 4.90495 10.2591H3.83203C3.3679 10.2591 2.92278 10.4435 2.59459 10.7717C2.26641 11.0999 2.08203 11.545 2.08203 12.0091V13.9779C2.08202 14.443 2.26606 14.8892 2.59396 15.219C2.92185 15.5488 3.36695 15.7355 3.83203 15.7383H4.96745C5.11328 15.7383 5.21745 15.8529 5.27995 16.0091C5.31716 16.0665 5.33697 16.1334 5.33697 16.2018C5.33697 16.2702 5.31716 16.3371 5.27995 16.3945L4.4362 17.1654C4.10825 17.4953 3.92147 17.9398 3.91536 18.4049C3.91501 18.6359 3.96091 18.8645 4.05036 19.0774C4.13982 19.2903 4.27101 19.4832 4.4362 19.6445L5.83203 21.0612C5.99372 21.224 6.18603 21.3533 6.39788 21.4414C6.60973 21.5296 6.83693 21.575 7.06641 21.575C7.29588 21.575 7.52308 21.5296 7.73493 21.4414C7.94678 21.3533 8.13909 21.224 8.30078 21.0612L9.10286 20.2904C9.1666 20.2495 9.24071 20.2278 9.31641 20.2278C9.3921 20.2278 9.46621 20.2495 9.52995 20.2904C9.59285 20.3138 9.64779 20.3547 9.68836 20.4082C9.72894 20.4616 9.75347 20.5256 9.75911 20.5924V21.7279C9.77531 22.1811 9.96681 22.6103 10.2933 22.9251C10.6197 23.2399 11.0556 23.4157 11.5091 23.4154H13.4779C13.943 23.4154 14.3892 23.2313 14.719 22.9034C15.0488 22.5755 15.2355 22.1304 15.2383 21.6654V20.5299C15.2383 20.3841 15.3529 20.2799 15.5091 20.2174C15.5665 20.1802 15.6334 20.1604 15.7018 20.1604C15.7702 20.1604 15.8371 20.1802 15.8945 20.2174L16.6862 21.0195C17.0161 21.3475 17.4606 21.5343 17.9258 21.5404C18.155 21.5399 18.3819 21.4936 18.593 21.4042C18.8041 21.3147 18.9952 21.1839 19.1549 21.0195L20.5508 19.6237C20.7136 19.462 20.8428 19.2697 20.931 19.0578C21.0192 18.846 21.0646 18.6188 21.0646 18.3893C21.0646 18.1599 21.0192 17.9326 20.931 17.7208C20.8428 17.5089 20.7136 17.3166 20.5508 17.1549L19.7904 16.3945C19.7531 16.3371 19.7333 16.2702 19.7333 16.2018C19.7333 16.1334 19.7531 16.0665 19.7904 16.0091C19.8138 15.9462 19.8547 15.8913 19.9082 15.8507C19.9616 15.8101 20.0256 15.7856 20.0924 15.7799H21.2279C21.6793 15.7638 22.107 15.5738 22.4215 15.2496C22.736 14.9253 22.913 14.4921 22.9154 14.0404V12.0195C22.9154 11.5544 22.7313 11.1082 22.4034 10.7784C22.0755 10.4486 21.6304 10.2619 21.1654 10.2591ZM12.4987 16.6445C11.7776 16.6445 11.0727 16.4307 10.4732 16.0301C9.87363 15.6295 9.40633 15.0601 9.13039 14.3939C8.85444 13.7277 8.78224 12.9947 8.92292 12.2874C9.06359 11.5802 9.41083 10.9306 9.9207 10.4207C10.4306 9.91083 11.0802 9.56359 11.7874 9.42292C12.4947 9.28224 13.2277 9.35444 13.8939 9.63039C14.5601 9.90633 15.1295 10.3736 15.5301 10.9732C15.9307 11.5727 16.1445 12.2776 16.1445 12.9987C16.1445 13.9656 15.7604 14.893 15.0767 15.5767C14.393 16.2604 13.4656 16.6445 12.4987 16.6445Z" fill="#133159" fill-opacity="0.65"/>
</svg>
