<svg width="25" height="26" viewBox="0 0 25 26" fill="none" xmlns="http://www.w3.org/2000/svg">
<path d="M16.8594 20.675L14.3375 18.1516C13.3623 18.5002 12.308 18.5648 11.2975 18.3378C10.287 18.1107 9.36176 17.6014 8.62941 16.869C7.89705 16.1367 7.38772 15.2114 7.16067 14.2009C6.93362 13.1904 6.9982 12.1362 7.34688 11.1609L4.12812 7.94219C1.46562 10.3094 0 13 0 13C0 13 4.6875 21.5938 12.5 21.5938C14.0006 21.5885 15.4843 21.2759 16.8594 20.675ZM8.14062 5.325C9.51571 4.7241 10.9994 4.41142 12.5 4.40625C20.3125 4.40625 25 13 25 13C25 13 23.5328 15.6891 20.8734 18.0594L17.6516 14.8375C18.0002 13.8623 18.0648 12.808 17.8378 11.7975C17.6107 10.787 17.1014 9.86176 16.369 9.12941C15.6367 8.39705 14.7114 7.88772 13.7009 7.66067C12.6904 7.43362 11.6362 7.4982 10.6609 7.84688L8.14062 5.32656V5.325Z" fill="#133159" fill-opacity="0.65"/>
<path d="M8.63125 12.4453C8.5453 13.0458 8.60038 13.658 8.79213 14.2335C8.98388 14.809 9.30702 15.332 9.73596 15.7609C10.1649 16.1899 10.6878 16.513 11.2633 16.7047C11.8388 16.8965 12.4511 16.9516 13.0516 16.8656L8.62969 12.4453H8.63125ZM16.3656 13.5516L11.9453 9.12969C12.5458 9.04374 13.158 9.09882 13.7335 9.29057C14.309 9.48232 14.832 9.80546 15.2609 10.2344C15.6899 10.6633 16.013 11.1863 16.2047 11.7618C16.3965 12.3373 16.4516 12.9495 16.3656 13.55V13.5516ZM21.3203 22.9266L2.57031 4.17656L3.67656 3.07031L22.4266 21.8203L21.3203 22.9266Z" fill="#133159" fill-opacity="0.65"/>
</svg>
