<svg width="25" height="26" viewBox="0 0 25 26" fill="none" xmlns="http://www.w3.org/2000/svg">
<path d="M12.4987 2.58203C6.85182 2.58203 2.08203 7.35182 2.08203 12.9987C2.08203 18.6456 6.85182 23.4154 12.4987 23.4154C18.1456 23.4154 22.9154 18.6456 22.9154 12.9987C22.9154 7.35182 18.1456 2.58203 12.4987 2.58203ZM12.4987 7.79036C14.2977 7.79036 15.6237 9.11536 15.6237 10.9154C15.6237 12.7154 14.2977 14.0404 12.4987 14.0404C10.7008 14.0404 9.3737 12.7154 9.3737 10.9154C9.3737 9.11536 10.7008 7.79036 12.4987 7.79036ZM7.17995 17.9695C8.11432 16.5945 9.67266 15.6779 11.457 15.6779H13.5404C15.3258 15.6779 16.8831 16.5945 17.8174 17.9695C16.4862 19.3945 14.5977 20.2904 12.4987 20.2904C10.3997 20.2904 8.5112 19.3945 7.17995 17.9695Z" fill="#133159" fill-opacity="0.65"/>
</svg>
